0
SECTION
2
HEADER
9
$INSUNITS
70
5
9
$ACADVER
1
AC1014
9
$HANDSEED
5
FFFF
0
ENDSEC
0
SECTION
2
TABLES
0
TABLE
2
VPORT
5
8
100
AcDbSymbolTable
0
ENDTAB
0
TABLE
2
LTYPE
5
5
100
AcDbSymbolTable
0
LTYPE
5
14
100
AcDbSymbolTableRecord
100
AcDbLinetypeTableRecord
2
BYBLOCK
70
0
0
LTYPE
5
15
100
AcDbSymbolTableRecord
100
AcDbLinetypeTableRecord
2
BYLAYER
70
0
0
ENDTAB
0
TABLE
2
LAYER
5
2
100
AcDbSymbolTable
70
2
0
LAYER
5
50
100
AcDbSymbolTableRecord
100
AcDbLayerTableRecord
2
0
70
0
6
CONTINUOUS
0
ENDTAB
0
TABLE
2
STYLE
5
3
100
AcDbSymbolTable
70
1
0
STYLE
5
11
100
AcDbSymbolTableRecord
100
AcDbTextStyleTableRecord
2
STANDARD
70
0
0
ENDTAB
0
TABLE
2
VIEW
5
6
100
AcDbSymbolTable
70
0
0
ENDTAB
0
TABLE
2
UCS
5
7
100
AcDbSymbolTable
70
0
0
ENDTAB
0
TABLE
2
APPID
5
9
100
AcDbSymbolTable
70
2
0
APPID
5
12
100
AcDbSymbolTableRecord
100
AcDbRegAppTableRecord
2
ACAD
70
0
0
ENDTAB
0
TABLE
2
DIMSTYLE
5
A
100
AcDbSymbolTable
70
1
0
ENDTAB
0
TABLE
2
BLOCK_RECORD
5
1
100
AcDbSymbolTable
70
1
0
BLOCK_RECORD
5
1F
100
AcDbSymbolTableRecord
100
AcDbBlockTableRecord
2
*MODEL_SPACE
0
BLOCK_RECORD
5
1B
100
AcDbSymbolTableRecord
100
AcDbBlockTableRecord
2
*PAPER_SPACE
0
ENDTAB
0
ENDSEC
0
SECTION
2
BLOCKS
0
BLOCK
5
20
100
AcDbEntity
100
AcDbBlockBegin
2
*MODEL_SPACE
0
ENDBLK
5
21
100
AcDbEntity
100
AcDbBlockEnd
0
BLOCK
5
1C
100
AcDbEntity
100
AcDbBlockBegin
2
*PAPER_SPACE
0
ENDBLK
5
1D
100
AcDbEntity
100
AcDbBlockEnd
0
ENDSEC
0
SECTION
2
ENTITIES
0
CIRCLE
5
100
100
AcDbEntity
8
0
100
AcDbCircle
10
-24.75
20
11.5
30
0
40
0.26000000000000467
210
0
220
0
230
1
0
CIRCLE
5
101
100
AcDbEntity
8
0
100
AcDbCircle
10
-24.75
20
-12.5
30
0
40
0.26000000000000467
210
0
220
0
230
1
0
LWPOLYLINE
5
102
100
AcDbEntity
8
0
100
AcDbPolyline
90
10
70
1
43
0.0
10
-19.230000000000018
20
-22.98
10
-19.230000000000018
20
-23.999999998482789
10
-3.2807700763995431
20
-23.999999993516735
10
-3.2799999987763258
20
23.000000000174499
10
-19.230000000000018
20
22.999999999999993
10
-19.230000000000018
20
21.979999999999993
10
-25.230000000000022
20
15.979999999999983
10
-26.25
20
15.97999999999999
10
-26.25
20
-16.979999999999993
10
-25.230000000000022
20
-16.979999999999983
0
LINE
5
103
100
AcDbEntity
8
0
100
AcDbLine
10
-19.230000000000018
20
-23.999999998482789
30
0
11
-19.230000000000018
21
-22.98
31
0
0
CIRCLE
5
104
100
AcDbEntity
8
0
100
AcDbCircle
10
-24.75
20
-12.5
30
0
40
0.26000000000000467
210
0
220
0
230
1
0
LINE
5
105
100
AcDbEntity
8
0
100
AcDbLine
10
-19.230000000000018
20
21.979999999999993
30
0
11
-25.230000000000022
21
15.979999999999983
31
0
0
LINE
5
106
100
AcDbEntity
8
0
100
AcDbLine
10
-25.230000000000022
20
-16.979999999999983
30
0
11
-26.25
21
-16.979999999999993
31
0
0
LINE
5
107
100
AcDbEntity
8
0
100
AcDbLine
10
-19.230000000000018
20
-22.98
30
0
11
-25.230000000000022
21
-16.979999999999983
31
0
0
CIRCLE
5
108
100
AcDbEntity
8
0
100
AcDbCircle
10
-24.75
20
11.5
30
0
40
0.26000000000000467
210
0
220
0
230
1
0
LINE
5
109
100
AcDbEntity
8
0
100
AcDbLine
10
-25.230000000000022
20
15.979999999999983
30
0
11
-26.25
21
15.97999999999999
31
0
0
LINE
5
110
100
AcDbEntity
8
0
100
AcDbLine
10
-19.230000000000018
20
22.999999999999993
30
0
11
-19.230000000000018
21
21.979999999999993
31
0
0
CIRCLE
5
111
100
AcDbEntity
8
0
100
AcDbCircle
10
-13.230000000000018
20
12.515643296040043
30
0
40
5.6999999999999993
210
0
220
0
230
1
0
CIRCLE
5
112
100
AcDbEntity
8
0
100
AcDbCircle
10
-7.9800000000000182
20
17.765643296040043
30
0
40
0.20000000000000132
210
0
220
0
230
1
0
CIRCLE
5
113
100
AcDbEntity
8
0
100
AcDbCircle
10
-18.480000000000018
20
17.765643296040043
30
0
40
0.20000000000000132
210
0
220
0
230
1
0
CIRCLE
5
114
100
AcDbEntity
8
0
100
AcDbCircle
10
-18.480000000000018
20
7.2656432960400439
30
0
40
0.20000000000000132
210
0
220
0
230
1
0
CIRCLE
5
115
100
AcDbEntity
8
0
100
AcDbCircle
10
-7.9800000000000182
20
7.2656432960400439
30
0
40
0.20000000000000132
210
0
220
0
230
1
0
CIRCLE
5
116
100
AcDbEntity
8
0
100
AcDbCircle
10
-7.9800000000000182
20
4.765643296040043
30
0
40
0.20000000000000132
210
0
220
0
230
1
0
CIRCLE
5
117
100
AcDbEntity
8
0
100
AcDbCircle
10
-7.9800000000000182
20
-5.7343567039599561
30
0
40
0.20000000000000132
210
0
220
0
230
1
0
CIRCLE
5
118
100
AcDbEntity
8
0
100
AcDbCircle
10
-18.480000000000018
20
-5.7343567039599561
30
0
40
0.20000000000000132
210
0
220
0
230
1
0
CIRCLE
5
119
100
AcDbEntity
8
0
100
AcDbCircle
10
-18.480000000000018
20
4.765643296040043
30
0
40
0.20000000000000132
210
0
220
0
230
1
0
CIRCLE
5
120
100
AcDbEntity
8
0
100
AcDbCircle
10
-13.230000000000018
20
-0.484356703959957
30
0
40
5.6999999999999993
210
0
220
0
230
1
0
CIRCLE
5
121
100
AcDbEntity
8
0
100
AcDbCircle
10
-7.9800000000000182
20
-8.234356703959957
30
0
40
0.20000000000000132
210
0
220
0
230
1
0
CIRCLE
5
122
100
AcDbEntity
8
0
100
AcDbCircle
10
-7.9800000000000182
20
-18.734356703959957
30
0
40
0.20000000000000132
210
0
220
0
230
1
0
CIRCLE
5
123
100
AcDbEntity
8
0
100
AcDbCircle
10
-18.480000000000018
20
-18.734356703959957
30
0
40
0.20000000000000132
210
0
220
0
230
1
0
CIRCLE
5
124
100
AcDbEntity
8
0
100
AcDbCircle
10
-18.480000000000018
20
-8.234356703959957
30
0
40
0.20000000000000132
210
0
220
0
230
1
0
CIRCLE
5
125
100
AcDbEntity
8
0
100
AcDbCircle
10
-13.230000000000018
20
-13.484356703959957
30
0
40
5.6999999999999993
210
0
220
0
230
1
0
LINE
5
126
100
AcDbEntity
8
0
100
AcDbLine
10
-6.2300000000000182
20
14.508681183358474
30
0
11
-5.0231945328919405
21
14.508661410297075
31
0
0
LWPOLYLINE
5
127
100
AcDbEntity
8
0
100
AcDbPolyline
90
4
70
1
43
0.0
10
-5.0232010861615848
20
14.10867905341887
10
-6.2300065540713208
20
14.108698826518038
42
-0.99999999999999989
10
-6.2299934459287156
20
14.908698826320828
10
-5.0231879784535423
20
14.908679053297176
42
-0.99999999999999989
0
LWPOLYLINE
5
128
100
AcDbEntity
8
0
100
AcDbPolyline
90
4
70
1
43
0.0
10
-20.223201086161584
20
14.10867905341887
10
-21.430006554071319
20
14.108698826518038
42
-0.99999999999999989
10
-21.429993445928716
20
14.908698826320828
10
-20.223187978453542
20
14.908679053297176
42
-0.99999999999999989
0
LWPOLYLINE
5
129
100
AcDbEntity
8
0
100
AcDbPolyline
90
4
70
1
43
0.0
10
-5.0232010861615848
20
12.60867905341887
10
-6.2300065540713208
20
12.608698826518038
42
-0.99999999999999989
10
-6.2299934459287156
20
13.408698826320828
10
-5.0231879784535423
20
13.408679053297176
42
-0.99999999999999989
0
LWPOLYLINE
5
130
100
AcDbEntity
8
0
100
AcDbPolyline
90
4
70
1
43
0.0
10
-20.223201086161584
20
12.60867905341887
10
-21.430006554071319
20
12.608698826518038
42
-0.99999999999999989
10
-21.429993445928716
20
13.408698826320828
10
-20.223187978453542
20
13.408679053297176
42
-0.99999999999999989
0
LWPOLYLINE
5
131
100
AcDbEntity
8
0
100
AcDbPolyline
90
4
70
1
43
0.0
10
-5.0232010861615848
20
11.10867905341887
10
-6.2300065540713208
20
11.108698826518038
42
-0.99999999999999989
10
-6.2299934459287156
20
11.908698826320828
10
-5.0231879784535423
20
11.908679053297176
42
-0.99999999999999989
0
LWPOLYLINE
5
132
100
AcDbEntity
8
0
100
AcDbPolyline
90
4
70
1
43
0.0
10
-20.223201086161584
20
11.10867905341887
10
-21.430006554071319
20
11.108698826518038
42
-0.99999999999999989
10
-21.429993445928716
20
11.908698826320828
10
-20.223187978453542
20
11.908679053297176
42
-0.99999999999999989
0
LWPOLYLINE
5
133
100
AcDbEntity
8
0
100
AcDbPolyline
90
4
70
1
43
0.0
10
-5.0232010861615848
20
9.6086790534188697
10
-6.2300065540713208
20
9.6086988265180384
42
-0.99999999999999989
10
-6.2299934459287156
20
10.408698826320828
10
-5.0231879784535423
20
10.408679053297176
42
-0.99999999999999989
0
LWPOLYLINE
5
134
100
AcDbEntity
8
0
100
AcDbPolyline
90
4
70
1
43
0.0
10
-20.223201086161584
20
9.6086790534188697
10
-21.430006554071319
20
9.6086988265180384
42
-0.99999999999999989
10
-21.429993445928716
20
10.408698826320828
10
-20.223187978453542
20
10.408679053297176
42
-0.99999999999999989
0
LWPOLYLINE
5
135
100
AcDbEntity
8
0
100
AcDbPolyline
90
4
70
1
43
0.0
10
-5.0232010861615848
20
8.1086790534188697
10
-6.2300065540713208
20
8.1086988265180384
42
-0.99999999999999989
10
-6.2299934459287156
20
8.908698826320828
10
-5.0231879784535423
20
8.9086790532971758
42
-0.99999999999999989
0
LWPOLYLINE
5
136
100
AcDbEntity
8
0
100
AcDbPolyline
90
4
70
1
43
0.0
10
-20.223201086161584
20
8.1086790534188697
10
-21.430006554071319
20
8.1086988265180384
42
-0.99999999999999989
10
-21.429993445928716
20
8.908698826320828
10
-20.223187978453542
20
8.9086790532971758
42
-0.99999999999999989
0
LWPOLYLINE
5
137
100
AcDbEntity
8
0
100
AcDbPolyline
90
4
70
1
43
0.0
10
-5.0232010861615848
20
6.6086790534188697
10
-6.2300065540713208
20
6.6086988265180384
42
-0.99999999999999989
10
-6.2299934459287156
20
7.408698826320828
10
-5.0231879784535423
20
7.4086790532971758
42
-0.99999999999999989
0
LWPOLYLINE
5
138
100
AcDbEntity
8
0
100
AcDbPolyline
90
4
70
1
43
0.0
10
-20.223201086161584
20
6.6086790534188697
10
-21.430006554071319
20
6.6086988265180384
42
-0.99999999999999989
10
-21.429993445928716
20
7.408698826320828
10
-20.223187978453542
20
7.4086790532971758
42
-0.99999999999999989
0
LWPOLYLINE
5
139
100
AcDbEntity
8
0
100
AcDbPolyline
90
4
70
1
43
0.0
10
-5.0232010861615848
20
5.1086790534188697
10
-6.2300065540713208
20
5.1086988265180384
42
-0.99999999999999989
10
-6.2299934459287156
20
5.908698826320828
10
-5.0231879784535423
20
5.9086790532971758
42
-0.99999999999999989
0
LWPOLYLINE
5
140
100
AcDbEntity
8
0
100
AcDbPolyline
90
4
70
1
43
0.0
10
-20.223201086161584
20
5.1086790534188697
10
-21.430006554071319
20
5.1086988265180384
42
-0.99999999999999989
10
-21.429993445928716
20
5.908698826320828
10
-20.223187978453542
20
5.9086790532971758
42
-0.99999999999999989
0
LWPOLYLINE
5
141
100
AcDbEntity
8
0
100
AcDbPolyline
90
4
70
1
43
0.0
10
-5.0232010861615848
20
3.6086790534188697
10
-6.2300065540713208
20
3.6086988265180384
42
-0.99999999999999989
10
-6.2299934459287156
20
4.408698826320828
10
-5.0231879784535423
20
4.4086790532971758
42
-0.99999999999999989
0
LWPOLYLINE
5
142
100
AcDbEntity
8
0
100
AcDbPolyline
90
4
70
1
43
0.0
10
-20.223201086161584
20
3.6086790534188697
10
-21.430006554071319
20
3.6086988265180384
42
-0.99999999999999989
10
-21.429993445928716
20
4.408698826320828
10
-20.223187978453542
20
4.4086790532971758
42
-0.99999999999999989
0
LWPOLYLINE
5
143
100
AcDbEntity
8
0
100
AcDbPolyline
90
4
70
1
43
0.0
10
-5.0232010861615848
20
2.1086790534188697
10
-6.2300065540713208
20
2.1086988265180384
42
-0.99999999999999989
10
-6.2299934459287156
20
2.908698826320828
10
-5.0231879784535423
20
2.9086790532971758
42
-0.99999999999999989
0
LWPOLYLINE
5
144
100
AcDbEntity
8
0
100
AcDbPolyline
90
4
70
1
43
0.0
10
-20.223201086161584
20
2.1086790534188697
10
-21.430006554071319
20
2.1086988265180384
42
-0.99999999999999989
10
-21.429993445928716
20
2.908698826320828
10
-20.223187978453542
20
2.9086790532971758
42
-0.99999999999999989
0
LWPOLYLINE
5
145
100
AcDbEntity
8
0
100
AcDbPolyline
90
4
70
1
43
0.0
10
-5.0232010861615848
20
0.60867905341886974
10
-6.2300065540713208
20
0.60869882651803842
42
-0.99999999999999989
10
-6.2299934459287156
20
1.408698826320828
10
-5.0231879784535423
20
1.4086790532971758
42
-0.99999999999999989
0
LWPOLYLINE
5
146
100
AcDbEntity
8
0
100
AcDbPolyline
90
4
70
1
43
0.0
10
-20.223201086161584
20
0.60867905341886974
10
-21.430006554071319
20
0.60869882651803842
42
-0.99999999999999989
10
-21.429993445928716
20
1.408698826320828
10
-20.223187978453542
20
1.4086790532971758
42
-0.99999999999999989
0
LWPOLYLINE
5
147
100
AcDbEntity
8
0
100
AcDbPolyline
90
4
70
1
43
0.0
10
-5.0232010861615848
20
-0.89132094658113026
10
-6.2300065540713208
20
-0.89130117348196158
42
-0.99999999999999989
10
-6.2299934459287156
20
-0.09130117367917201
10
-5.0231879784535423
20
-0.091320946702824202
42
-0.99999999999999989
0
LWPOLYLINE
5
148
100
AcDbEntity
8
0
100
AcDbPolyline
90
4
70
1
43
0.0
10
-20.223201086161584
20
-0.89132094658113026
10
-21.430006554071319
20
-0.89130117348196158
42
-0.99999999999999989
10
-21.429993445928716
20
-0.09130117367917201
10
-20.223187978453542
20
-0.091320946702824202
42
-0.99999999999999989
0
LWPOLYLINE
5
149
100
AcDbEntity
8
0
100
AcDbPolyline
90
4
70
1
43
0.0
10
-5.0232010861615848
20
-2.3913209465811303
10
-6.2300065540713208
20
-2.3913011734819616
42
-0.99999999999999989
10
-6.2299934459287156
20
-1.591301173679172
10
-5.0231879784535423
20
-1.5913209467028242
42
-0.99999999999999989
0
LWPOLYLINE
5
150
100
AcDbEntity
8
0
100
AcDbPolyline
90
4
70
1
43
0.0
10
-20.223201086161584
20
-2.3913209465811303
10
-21.430006554071319
20
-2.3913011734819616
42
-0.99999999999999989
10
-21.429993445928716
20
-1.591301173679172
10
-20.223187978453542
20
-1.5913209467028242
42
-0.99999999999999989
0
LWPOLYLINE
5
151
100
AcDbEntity
8
0
100
AcDbPolyline
90
4
70
1
43
0.0
10
-5.0232010861615848
20
-3.8913209465811303
10
-6.2300065540713208
20
-3.8913011734819616
42
-0.99999999999999989
10
-6.2299934459287156
20
-3.091301173679172
10
-5.0231879784535423
20
-3.0913209467028242
42
-0.99999999999999989
0
LWPOLYLINE
5
152
100
AcDbEntity
8
0
100
AcDbPolyline
90
4
70
1
43
0.0
10
-20.223201086161584
20
-3.8913209465811303
10
-21.430006554071319
20
-3.8913011734819616
42
-0.99999999999999989
10
-21.429993445928716
20
-3.091301173679172
10
-20.223187978453542
20
-3.0913209467028242
42
-0.99999999999999989
0
LWPOLYLINE
5
153
100
AcDbEntity
8
0
100
AcDbPolyline
90
4
70
1
43
0.0
10
-5.0232010861615848
20
-5.3913209465811303
10
-6.2300065540713208
20
-5.3913011734819616
42
-0.99999999999999989
10
-6.2299934459287156
20
-4.591301173679172
10
-5.0231879784535423
20
-4.5913209467028242
42
-0.99999999999999989
0
LWPOLYLINE
5
154
100
AcDbEntity
8
0
100
AcDbPolyline
90
4
70
1
43
0.0
10
-20.223201086161584
20
-5.3913209465811303
10
-21.430006554071319
20
-5.3913011734819616
42
-0.99999999999999989
10
-21.429993445928716
20
-4.591301173679172
10
-20.223187978453542
20
-4.5913209467028242
42
-0.99999999999999989
0
LWPOLYLINE
5
155
100
AcDbEntity
8
0
100
AcDbPolyline
90
4
70
1
43
0.0
10
-5.0232010861615848
20
-6.8913209465811303
10
-6.2300065540713208
20
-6.8913011734819616
42
-0.99999999999999989
10
-6.2299934459287156
20
-6.091301173679172
10
-5.0231879784535423
20
-6.0913209467028242
42
-0.99999999999999989
0
LWPOLYLINE
5
156
100
AcDbEntity
8
0
100
AcDbPolyline
90
4
70
1
43
0.0
10
-20.223201086161584
20
-6.8913209465811303
10
-21.430006554071319
20
-6.8913011734819616
42
-0.99999999999999989
10
-21.429993445928716
20
-6.091301173679172
10
-20.223187978453542
20
-6.0913209467028242
42
-0.99999999999999989
0
LWPOLYLINE
5
157
100
AcDbEntity
8
0
100
AcDbPolyline
90
4
70
1
43
0.0
10
-5.0232010861615848
20
-8.3913209465811303
10
-6.2300065540713208
20
-8.3913011734819616
42
-0.99999999999999989
10
-6.2299934459287156
20
-7.591301173679172
10
-5.0231879784535423
20
-7.5913209467028242
42
-0.99999999999999989
0
LWPOLYLINE
5
158
100
AcDbEntity
8
0
100
AcDbPolyline
90
4
70
1
43
0.0
10
-20.223201086161584
20
-8.3913209465811303
10
-21.430006554071319
20
-8.3913011734819616
42
-0.99999999999999989
10
-21.429993445928716
20
-7.591301173679172
10
-20.223187978453542
20
-7.5913209467028242
42
-0.99999999999999989
0
LWPOLYLINE
5
159
100
AcDbEntity
8
0
100
AcDbPolyline
90
4
70
1
43
0.0
10
-5.0232010861615848
20
-9.8913209465811303
10
-6.2300065540713208
20
-9.8913011734819616
42
-0.99999999999999989
10
-6.2299934459287156
20
-9.091301173679172
10
-5.0231879784535423
20
-9.0913209467028242
42
-0.99999999999999989
0
LWPOLYLINE
5
160
100
AcDbEntity
8
0
100
AcDbPolyline
90
4
70
1
43
0.0
10
-20.223201086161584
20
-9.8913209465811303
10
-21.430006554071319
20
-9.8913011734819616
42
-0.99999999999999989
10
-21.429993445928716
20
-9.091301173679172
10
-20.223187978453542
20
-9.0913209467028242
42
-0.99999999999999989
0
LWPOLYLINE
5
161
100
AcDbEntity
8
0
100
AcDbPolyline
90
4
70
1
43
0.0
10
-5.0232010861615848
20
-11.39132094658113
10
-6.2300065540713208
20
-11.391301173481962
42
-0.99999999999999989
10
-6.2299934459287156
20
-10.591301173679172
10
-5.0231879784535423
20
-10.591320946702824
42
-0.99999999999999989
0
LWPOLYLINE
5
162
100
AcDbEntity
8
0
100
AcDbPolyline
90
4
70
1
43
0.0
10
-20.223201086161584
20
-11.39132094658113
10
-21.430006554071319
20
-11.391301173481962
42
-0.99999999999999989
10
-21.429993445928716
20
-10.591301173679172
10
-20.223187978453542
20
-10.591320946702824
42
-0.99999999999999989
0
LWPOLYLINE
5
163
100
AcDbEntity
8
0
100
AcDbPolyline
90
4
70
1
43
0.0
10
-5.0232010861615848
20
-12.89132094658113
10
-6.2300065540713208
20
-12.891301173481962
42
-0.99999999999999989
10
-6.2299934459287156
20
-12.091301173679172
10
-5.0231879784535423
20
-12.091320946702824
42
-0.99999999999999989
0
LWPOLYLINE
5
164
100
AcDbEntity
8
0
100
AcDbPolyline
90
4
70
1
43
0.0
10
-20.223201086161584
20
-12.89132094658113
10
-21.430006554071319
20
-12.891301173481962
42
-0.99999999999999989
10
-21.429993445928716
20
-12.091301173679172
10
-20.223187978453542
20
-12.091320946702824
42
-0.99999999999999989
0
LWPOLYLINE
5
165
100
AcDbEntity
8
0
100
AcDbPolyline
90
4
70
1
43
0.0
10
-5.0232010861615848
20
-14.39132094658113
10
-6.2300065540713208
20
-14.391301173481962
42
-0.99999999999999989
10
-6.2299934459287156
20
-13.591301173679172
10
-5.0231879784535423
20
-13.591320946702824
42
-0.99999999999999989
0
LWPOLYLINE
5
166
100
AcDbEntity
8
0
100
AcDbPolyline
90
4
70
1
43
0.0
10
-20.223201086161584
20
-14.39132094658113
10
-21.430006554071319
20
-14.391301173481962
42
-0.99999999999999989
10
-21.429993445928716
20
-13.591301173679172
10
-20.223187978453542
20
-13.591320946702824
42
-0.99999999999999989
0
LWPOLYLINE
5
167
100
AcDbEntity
8
0
100
AcDbPolyline
90
4
70
1
43
0.0
10
-5.0232010861615848
20
-15.89132094658113
10
-6.2300065540713208
20
-15.891301173481962
42
-0.99999999999999989
10
-6.2299934459287156
20
-15.091301173679172
10
-5.0231879784535423
20
-15.091320946702824
42
-0.99999999999999989
0
LWPOLYLINE
5
168
100
AcDbEntity
8
0
100
AcDbPolyline
90
4
70
1
43
0.0
10
-20.223201086161584
20
-15.89132094658113
10
-21.430006554071319
20
-15.891301173481962
42
-0.99999999999999989
10
-21.429993445928716
20
-15.091301173679172
10
-20.223187978453542
20
-15.091320946702824
42
-0.99999999999999989
0
ENDSEC
0
SECTION
2
OBJECTS
0
DICTIONARY
5
C
100
AcDbDictionary
3
ACAD_GROUP
350
D
3
ACAD_MLINESTYLE
350
17
0
DICTIONARY
5
D
100
AcDbDictionary
0
DICTIONARY
5
1A
330
C
100
AcDbDictionary
0
DICTIONARY
5
17
100
AcDbDictionary
0
ENDSEC
0
EOF
